<?xml version="1.0" encoding="utf-8"?>
<!-- Generator: Adobe Illustrator 26.0.2, SVG Export Plug-In . SVG Version: 6.00 Build 0)  -->
<svg version="1.1" id="Layer_1" xmlns="http://www.w3.org/2000/svg"
	xmlns:xlink="http://www.w3.org/1999/xlink" x="0px" y="0px"
	viewBox="0 0 321.24 420.74" style="enable-background:new 0 0 321.24 420.74;"
	xml:space="preserve">
<style type="text/css">
	.st0{fill:#FFFFFF;}
	.st11{fill:#002757;stroke:#002757;stroke-width:3.2046;stroke-linecap:round;stroke-linejoin:round;stroke-miterlimit:10;}
	.st12{fill:#9fdaf9;stroke:#9fdaf9;stroke-width:3.2046;stroke-linecap:round;stroke-linejoin:round;stroke-miterlimit:10;}
	.st13{fill:#002757;}
	.st14{fill:#9fdaf9;}
	.st15{fill:#e30147;}
</style>
<path class="st0" d="M106.48,235.66c0,0,11.78,8.18,11.78,11.78s0,51.36,0,51.36l41.21,0.65l31.4-15.7l5.56-33.69l9.81-20.61
	l30.75-38.6c0,0,11.45-52.34,11.12-53.32s-10.14-31.4-10.14-31.4l-24.21-26.17l-43.83-18.64l-55.61,8.18l-34.35,47.43l-9.16,53.97
	l13.41,32.06L106.48,235.66z"/>
<g>
	<g>
		<g>
			<g>
				<g>
					<path class="st11" d="M190.9,185.59l-61.54,0.23c-1.26,0-2.29-1.02-2.3-2.28L126.83,122c0-1.26,1.02-2.29,2.28-2.3l61.54-0.23
						c1.26,0,2.29,1.02,2.3,2.28l0.23,61.54C193.19,184.56,192.17,185.58,190.9,185.59z M131.63,181.24l56.96-0.22l-0.22-56.96
						l-56.96,0.22L131.63,181.24z"/>
				</g>
				<g>
					<g>
						<path class="st11" d="M144.47,124.22c-1.26,0-2.29-1.02-2.3-2.28l-0.07-17.62c0-1.26,1.02-2.29,2.28-2.3
							c1.26,0,2.29,1.02,2.3,2.28l0.07,17.62C146.75,123.19,145.73,124.22,144.47,124.22z"/>
					</g>
					<g>
						<path class="st11" d="M144.4,106.6l-12.16,0.05c-1.26,0-2.29-1.02-2.3-2.28c0-1.26,1.02-2.29,2.28-2.3l12.16-0.05
							c1.26,0,2.29,1.02,2.3,2.28C146.69,105.57,145.66,106.6,144.4,106.6z"/>
					</g>
					<g>
						<path class="st11" d="M126.29,112.65c-4.56,0.02-8.28-3.68-8.3-8.24c-0.02-4.56,3.68-8.28,8.23-8.3
							c4.56-0.02,8.28,3.68,8.3,8.24C134.54,108.91,130.85,112.63,126.29,112.65z M126.24,100.69c-2.03,0.01-3.68,1.67-3.67,3.7
							c0.01,2.03,1.67,3.68,3.7,3.67c2.03-0.01,3.68-1.67,3.67-3.7C129.94,102.33,128.28,100.69,126.24,100.69z"/>
					</g>
				</g>
				<g>
					<g>
						<path class="st11" d="M174.78,124.11c-1.26,0-2.29-1.02-2.3-2.28l-0.07-17.62c0-1.26,1.02-2.29,2.28-2.3
							c1.26,0,2.29,1.02,2.3,2.28l0.07,17.62C177.06,123.08,176.04,124.1,174.78,124.11z"/>
					</g>
					<g>
						<path class="st11" d="M186.87,106.44l-12.16,0.05c-1.26,0-2.29-1.02-2.3-2.28c0-1.26,1.02-2.29,2.28-2.3l12.16-0.05
							c1.26,0,2.29,1.02,2.3,2.28C189.15,105.41,188.13,106.43,186.87,106.44z"/>
					</g>
					<g>
						<path class="st11" d="M192.87,112.39c-4.56,0.02-8.28-3.68-8.3-8.24c-0.02-4.56,3.68-8.28,8.24-8.3
							c4.56-0.02,8.28,3.68,8.3,8.24C201.12,108.65,197.42,112.38,192.87,112.39z M192.82,100.44c-2.03,0.01-3.68,1.67-3.67,3.7
							c0.01,2.03,1.67,3.68,3.7,3.67c2.03-0.01,3.68-1.67,3.67-3.7C196.51,102.08,194.85,100.43,192.82,100.44z"/>
					</g>
				</g>
				<g>
					<g>
						<path class="st11" d="M159.53,99.42c-4.56,0.02-8.28-3.68-8.3-8.24s3.68-8.28,8.23-8.3c4.56-0.02,8.28,3.68,8.3,8.23
							S164.09,99.4,159.53,99.42z M159.48,87.47c-2.03,0.01-3.68,1.67-3.67,3.7c0.01,2.03,1.67,3.68,3.7,3.67
							c2.03-0.01,3.68-1.67,3.67-3.7C163.18,89.11,161.52,87.46,159.48,87.47z"/>
					</g>
					<g>
						<path class="st11" d="M159.62,123.02c-1.26,0-2.29-1.02-2.3-2.28l-0.09-23.6c0-1.26,1.02-2.29,2.28-2.3
							c1.26,0,2.29,1.02,2.3,2.28l0.09,23.6C161.9,121.99,160.88,123.02,159.62,123.02z"/>
					</g>
				</g>
				<g>
					<g>
						<g>
							<path class="st11" d="M129.3,170.2l-17.62,0.07c-1.26,0-2.29-1.02-2.3-2.28c0-1.26,1.02-2.29,2.28-2.3l17.62-0.07
								c1.26,0,2.29,1.02,2.3,2.28C131.59,169.17,130.57,170.2,129.3,170.2z"/>
						</g>
						<g>
							<path class="st11" d="M111.73,182.43c-1.26,0-2.29-1.02-2.3-2.28l-0.05-12.16c0-1.26,1.02-2.29,2.28-2.3
								c1.26,0,2.29,1.02,2.3,2.28l0.05,12.16C114.01,181.39,112.99,182.42,111.73,182.43z"/>
						</g>
						<g>
							<path class="st11" d="M111.77,194.38c-4.56,0.02-8.28-3.68-8.3-8.23s3.68-8.28,8.23-8.3s8.28,3.68,8.3,8.24
								C120.02,190.64,116.33,194.36,111.77,194.38z M111.73,182.43c-2.03,0.01-3.68,1.67-3.67,3.7c0.01,2.03,1.67,3.68,3.7,3.67
								c2.03-0.01,3.68-1.67,3.67-3.7C115.42,184.07,113.76,182.42,111.73,182.43z"/>
						</g>
					</g>
					<g>
						<g>
							<path class="st11" d="M129.19,139.89l-17.62,0.07c-1.26,0-2.29-1.02-2.3-2.28c0-1.26,1.02-2.29,2.28-2.3l17.62-0.07
								c1.26,0,2.29,1.02,2.3,2.28S130.45,139.89,129.19,139.89z"/>
						</g>
						<g>
							<path class="st11" d="M111.56,139.96c-1.26,0-2.29-1.02-2.3-2.28l-0.05-12.16c0-1.26,1.02-2.29,2.28-2.3
								c1.26,0,2.29,1.02,2.3,2.28l0.05,12.16C113.85,138.93,112.83,139.96,111.56,139.96z"/>
						</g>
						<g>
							<path class="st11" d="M111.52,127.81c-4.56,0.02-8.28-3.68-8.3-8.24c-0.02-4.56,3.68-8.28,8.23-8.3
								c4.56-0.02,8.28,3.68,8.3,8.23C119.77,124.07,116.08,127.79,111.52,127.81z M111.47,115.85c-2.03,0.01-3.68,1.67-3.67,3.7
								c0.01,2.03,1.67,3.68,3.7,3.67c2.03-0.01,3.68-1.67,3.67-3.7C115.17,117.49,113.51,115.85,111.47,115.85z"/>
						</g>
					</g>
					<g>
						<g>
							<path class="st11" d="M98.55,161.14c-4.56,0.02-8.28-3.68-8.3-8.24c-0.02-4.56,3.68-8.28,8.23-8.3
								c4.56-0.02,8.28,3.68,8.3,8.24C106.8,157.4,103.1,161.13,98.55,161.14z M98.5,149.19c-2.03,0.01-3.68,1.67-3.67,3.7
								c0.01,2.03,1.67,3.68,3.7,3.67c2.03-0.01,3.68-1.67,3.67-3.7C102.19,150.83,100.53,149.18,98.5,149.19z"/>
						</g>
						<g>
							<path class="st11" d="M128.1,155.05l-23.6,0.09c-1.26,0-2.29-1.02-2.3-2.28c0-1.26,1.02-2.29,2.28-2.3l23.6-0.09
								c1.26,0,2.29,1.02,2.3,2.28C130.39,154.02,129.36,155.05,128.1,155.05z"/>
						</g>
					</g>
				</g>
				<g>
					<g>
						<g>
							<path class="st11" d="M175.35,203.27c-1.26,0-2.29-1.02-2.3-2.28l-0.07-17.62c0-1.26,1.02-2.29,2.28-2.3
								c1.26,0,2.29,1.02,2.3,2.28l0.07,17.62C177.64,202.24,176.62,203.27,175.35,203.27z"/>
						</g>
						<g>
							<path class="st11" d="M187.51,203.23l-12.16,0.05c-1.26,0-2.29-1.02-2.3-2.28c0-1.26,1.02-2.29,2.28-2.3l12.16-0.05
								c1.26,0,2.29,1.02,2.3,2.28C189.8,202.19,188.77,203.22,187.51,203.23z"/>
						</g>
						<g>
							<path class="st11" d="M193.51,209.18c-4.56,0.02-8.28-3.68-8.3-8.24c-0.02-4.56,3.68-8.28,8.24-8.3
								c4.56-0.02,8.28,3.68,8.3,8.24C201.76,205.44,198.07,209.16,193.51,209.18z M193.46,197.23c-2.03,0.01-3.68,1.67-3.67,3.7
								s1.67,3.68,3.7,3.67s3.68-1.67,3.67-3.7S195.5,197.22,193.46,197.23z"/>
						</g>
					</g>
					<g>
						<g>
							<path class="st11" d="M145.05,203.39c-1.26,0-2.29-1.02-2.3-2.28l-0.07-17.62c0-1.26,1.02-2.29,2.28-2.3
								c1.26,0,2.29,1.02,2.3,2.28l0.07,17.62C147.33,202.35,146.31,203.38,145.05,203.39z"/>
						</g>
						<g>
							<path class="st11" d="M145.05,203.39l-12.16,0.05c-1.26,0-2.29-1.02-2.3-2.28c0-1.26,1.02-2.29,2.28-2.3l12.16-0.05
								c1.26,0,2.29,1.02,2.3,2.28C147.33,202.35,146.31,203.38,145.05,203.39z"/>
						</g>
						<g>
							<path class="st11" d="M126.94,209.43c-4.56,0.02-8.28-3.68-8.3-8.24c-0.02-4.56,3.68-8.28,8.23-8.3
								c4.56-0.02,8.28,3.68,8.3,8.24C135.19,205.69,131.49,209.42,126.94,209.43z M126.89,197.48c-2.03,0.01-3.68,1.67-3.67,3.7
								s1.67,3.68,3.7,3.67c2.03-0.01,3.68-1.67,3.67-3.7S128.92,197.47,126.89,197.48z"/>
						</g>
					</g>
					<g>
						<g>
							<path class="st11" d="M160.27,222.4c-4.56,0.02-8.28-3.68-8.3-8.23c-0.02-4.56,3.68-8.28,8.23-8.3
								c4.56-0.02,8.28,3.68,8.3,8.24C168.52,218.66,164.83,222.39,160.27,222.4z M160.23,210.45c-2.03,0.01-3.68,1.67-3.67,3.7
								c0.01,2.03,1.67,3.68,3.7,3.67c2.03-0.01,3.68-1.67,3.67-3.7C163.92,212.09,162.26,210.44,160.23,210.45z"/>
						</g>
						<g>
							<path class="st11" d="M160.23,210.45c-1.26,0-2.29-1.02-2.3-2.28l-0.09-23.6c0-1.26,1.02-2.29,2.28-2.3
								c1.26,0,2.29,1.02,2.3,2.28l0.09,23.6C162.51,209.42,161.49,210.45,160.23,210.45z"/>
						</g>
					</g>
				</g>
				<g>
					<g>
						<g>
							<path class="st11" d="M208.62,139.6L191,139.66c-1.26,0-2.29-1.02-2.3-2.28c0-1.26,1.02-2.29,2.28-2.3l17.62-0.07
								c1.26,0,2.29,1.02,2.3,2.28C210.9,138.56,209.88,139.59,208.62,139.6z"/>
						</g>
						<g>
							<path class="st11" d="M208.62,139.6c-1.26,0-2.29-1.02-2.3-2.28l-0.05-12.16c0-1.26,1.02-2.29,2.28-2.3
								c1.26,0,2.29,1.02,2.3,2.28l0.05,12.16C210.9,138.56,209.88,139.59,208.62,139.6z"/>
						</g>
						<g>
							<path class="st11" d="M208.57,127.44c-4.56,0.02-8.28-3.68-8.3-8.24c-0.02-4.56,3.68-8.28,8.24-8.3
								c4.56-0.02,8.28,3.68,8.3,8.24C216.82,123.7,213.13,127.42,208.57,127.44z M208.53,115.49c-2.03,0.01-3.68,1.67-3.67,3.7
								c0.01,2.03,1.67,3.68,3.7,3.67c2.03-0.01,3.68-1.67,3.67-3.7C212.22,117.13,210.56,115.48,208.53,115.49z"/>
						</g>
					</g>
					<g>
						<g>
							<path class="st11" d="M208.73,169.9l-17.62,0.07c-1.26,0-2.29-1.02-2.3-2.28c0-1.26,1.02-2.29,2.28-2.3l17.62-0.07
								c1.26,0,2.29,1.02,2.3,2.28C211.02,168.87,210,169.9,208.73,169.9z"/>
						</g>
						<g>
							<path class="st11" d="M208.78,182.06c-1.26,0-2.29-1.02-2.3-2.28l-0.05-12.16c0-1.26,1.02-2.29,2.28-2.3
								c1.26,0,2.29,1.02,2.3,2.28l0.05,12.16C211.07,181.03,210.04,182.06,208.78,182.06z"/>
						</g>
						<g>
							<path class="st11" d="M208.83,194.01c-4.56,0.02-8.28-3.68-8.3-8.24c-0.02-4.56,3.68-8.28,8.24-8.3
								c4.56-0.02,8.28,3.68,8.3,8.24C217.08,190.27,213.38,194,208.83,194.01z M208.78,182.06c-2.03,0.01-3.68,1.67-3.67,3.7
								c0.01,2.03,1.67,3.68,3.7,3.67c2.03-0.01,3.68-1.67,3.67-3.7C212.47,183.7,210.81,182.05,208.78,182.06z"/>
						</g>
					</g>
					<g>
						<g>
							<path class="st11" d="M221.8,160.68c-4.56,0.02-8.28-3.68-8.3-8.23c-0.02-4.56,3.68-8.28,8.24-8.3
								c4.56-0.02,8.28,3.68,8.3,8.24C230.05,156.94,226.36,160.66,221.8,160.68z M221.75,148.72c-2.03,0.01-3.68,1.67-3.67,3.7
								c0.01,2.03,1.67,3.68,3.7,3.67c2.03-0.01,3.68-1.67,3.67-3.7C225.45,150.36,223.79,148.72,221.75,148.72z"/>
						</g>
						<g>
							<path class="st11" d="M215.8,154.72l-23.6,0.09c-1.26,0-2.29-1.02-2.3-2.28c0-1.26,1.02-2.29,2.28-2.3l23.6-0.09
								c1.26,0,2.29,1.02,2.3,2.28C218.08,153.69,217.06,154.72,215.8,154.72z"/>
						</g>
					</g>
				</g>
			</g>
		</g>
		<g>
			<path class="st12" d="M177.93,172.28l-35.42,0.13c-1.26,0-2.29-1.02-2.3-2.28l-0.14-35.42c0-1.26,1.02-2.29,2.28-2.3l35.42-0.14
				c1.26,0,2.29,1.02,2.3,2.28l0.14,35.42C180.22,171.25,179.19,172.28,177.93,172.28z M144.78,167.83l30.84-0.12l-0.12-30.84
				l-30.84,0.12L144.78,167.83z"/>
		</g>
	</g>
</g>
<g>
	<g>
		<path class="st13" d="M159.36,297.49c-0.53,0-1.03-0.21-1.4-0.58c-0.37-0.37-0.58-0.88-0.58-1.4l0-15.05
			c0-1.09,0.89-1.98,1.98-1.98l25.23,0c2.4,0,4.35-1.95,4.35-4.35l0-23.58c0-13.59,6.8-26.55,18.18-34.67
			c21.28-15.18,33.69-39.83,33.2-65.94c-0.81-43.49-35.53-77.56-79.05-77.57c-43.61,0-79.08,35.47-79.09,79.06
			c0,25.79,12.64,50.04,33.82,64.86c3,2.1,5.7,4.6,8.02,7.43c0.69,0.84,0.57,2.09-0.27,2.79l-11.62,9.56
			c-0.37,0.3-0.81,0.45-1.26,0.45c-0.57,0-1.14-0.25-1.53-0.72c-1.24-1.5-2.67-2.82-4.26-3.94c-26.25-18.36-41.92-48.43-41.92-80.43
			c0.01-54.08,44.01-98.07,98.08-98.07c54,0.01,97.07,42.28,98.07,96.22c0.6,32.38-14.79,62.95-41.17,81.76
			c-6.39,4.55-10.21,11.73-10.21,19.19l0,23.58c0,12.88-10.48,23.36-23.36,23.36L159.36,297.49z"/>
		<path class="st0" d="M161.27,55.36c0.01,0,0.01,0,0.02,0c52.89,0.01,95.09,41.42,96.07,94.28c0.59,31.72-14.49,61.67-40.34,80.11
			c-6.91,4.93-11.03,12.71-11.04,20.81l0,23.58c0,11.79-9.59,21.38-21.38,21.38c0,0,0,0,0,0l-25.23,0l0-15.05l25.23,0
			c3.49,0,6.33-2.84,6.33-6.33l0-23.58c0-12.95,6.49-25.31,17.35-33.05c21.8-15.56,34.53-40.82,34.03-67.59
			c-0.83-44.58-36.42-79.5-81.03-79.51c0,0-0.01,0-0.01,0c-44.69,0-81.05,36.35-81.06,81.04c0,26.44,12.95,51.29,34.66,66.48
			c2.85,2,5.42,4.38,7.63,7.07l-11.62,9.56c-1.35-1.64-2.91-3.08-4.65-4.3c-25.72-17.99-41.08-47.46-41.07-78.81
			C65.18,98.46,108.29,55.36,161.27,55.36 M161.29,51.4C161.29,51.4,161.29,51.4,161.29,51.4h-0.02
			c-55.17,0-100.06,44.88-100.07,100.05c-0.01,32.65,15.98,63.32,42.77,82.06c1.44,1.01,2.74,2.21,3.86,3.57
			c0.78,0.95,1.92,1.44,3.06,1.44c0.89,0,1.78-0.3,2.51-0.9l11.62-9.56c1.69-1.39,1.93-3.89,0.54-5.58c-2.44-2.97-5.28-5.6-8.42-7.8
			c-20.65-14.45-32.98-38.09-32.97-63.24c0.01-42.5,34.59-77.08,77.09-77.08c42.45,0.01,76.3,33.22,77.09,75.62
			c0.47,25.45-11.63,49.48-32.37,64.29c-11.9,8.48-19,22.04-19.01,36.28l0,23.58c0,0.63-0.25,1.23-0.7,1.68
			c-0.45,0.45-1.04,0.7-1.68,0.7l-25.23,0c-1.05,0-2.06,0.42-2.8,1.16c-0.74,0.74-1.16,1.75-1.16,2.8l0,15.05
			c0,2.19,1.77,3.96,3.96,3.96l25.23,0c13.98,0,25.35-11.37,25.35-25.34l0-23.58c0-6.83,3.51-13.4,9.37-17.58
			c26.91-19.2,42.61-50.38,42-83.41C260.3,94.53,216.36,51.41,161.29,51.4L161.29,51.4z"/>
	</g>
</g>
<g>
	<g>
		<path class="st14" d="M153.77,36.27c-1.09,0-1.98-0.89-1.98-1.98l0-25.99c0-1.09,0.89-1.98,1.98-1.98l15.05,0
			c0.53,0,1.03,0.21,1.4,0.58c0.37,0.37,0.58,0.88,0.58,1.4l0,25.99c0,0.53-0.21,1.03-0.58,1.4c-0.37,0.37-0.88,0.58-1.4,0.58
			L153.77,36.27z"/>
		<path class="st0" d="M153.77,8.3l15.05,0l0,25.99l-15.05,0L153.77,8.3 M153.77,4.34c-1.05,0-2.06,0.42-2.8,1.16
			c-0.74,0.74-1.16,1.75-1.16,2.8l0,25.99c0,2.19,1.77,3.96,3.96,3.96l15.05,0c0,0,0,0,0,0c2.19,0,3.96-1.77,3.96-3.96l0-25.99
			c0-1.05-0.42-2.06-1.16-2.8c-0.74-0.74-1.75-1.16-2.8-1.16L153.77,4.34C153.78,4.34,153.78,4.34,153.77,4.34L153.77,4.34z"/>
	</g>
</g>
<g>
	<g>
		<path class="st15" d="M72.11,75.2c-0.53,0-1.03-0.21-1.4-0.58L52.34,56.24c-0.37-0.37-0.58-0.88-0.58-1.4s0.21-1.03,0.58-1.4
			l10.64-10.64c0.37-0.37,0.88-0.58,1.4-0.58l0,0c0.53,0,1.03,0.21,1.4,0.58l18.37,18.38c0.77,0.77,0.77,2.03,0,2.8L73.52,74.62
			C73.14,75,72.64,75.2,72.11,75.2L72.11,75.2z"/>
		<path class="st0" d="M64.38,44.21l18.37,18.38L72.11,73.22L53.74,54.84L64.38,44.21 M64.38,40.24c-1.01,0-2.03,0.39-2.8,1.16
			L50.94,52.04c-1.55,1.55-1.55,4.06,0,5.6l18.37,18.38c0.74,0.74,1.75,1.16,2.8,1.16c0,0,0,0,0,0c1.05,0,2.06-0.42,2.8-1.16
			l10.64-10.64c1.55-1.55,1.55-4.06,0-5.6L67.18,41.41C66.41,40.63,65.4,40.24,64.38,40.24L64.38,40.24z"/>
	</g>
</g>
<g>
	<g>
		<path class="st15" d="M64.38,262.43c-0.53,0-1.03-0.21-1.4-0.58l-10.64-10.64c-0.37-0.37-0.58-0.88-0.58-1.4s0.21-1.03,0.58-1.4
			l18.37-18.38c0.37-0.37,0.88-0.58,1.4-0.58s1.03,0.21,1.4,0.58l10.64,10.64c0.77,0.77,0.77,2.03,0,2.8l-18.37,18.38
			C65.41,262.22,64.91,262.43,64.38,262.43z"/>
		<path class="st0" d="M72.11,231.43l10.64,10.64l-18.37,18.38l-10.64-10.64L72.11,231.43 M72.11,227.47c-1.01,0-2.03,0.39-2.8,1.16
			l-18.37,18.38c-0.74,0.74-1.16,1.75-1.16,2.8c0,1.05,0.42,2.06,1.16,2.8l10.64,10.64c0.77,0.77,1.79,1.16,2.8,1.16
			c1.01,0,2.03-0.39,2.8-1.16l18.37-18.38c0.74-0.74,1.16-1.75,1.16-2.8c0-1.05-0.42-2.06-1.16-2.8l-10.64-10.64
			C74.14,227.86,73.13,227.47,72.11,227.47L72.11,227.47z"/>
	</g>
</g>
<g>
	<g>
		<path class="st14" d="M17.84,167.15c-0.53,0-1.03-0.21-1.4-0.58c-0.37-0.37-0.58-0.88-0.58-1.4l0-15.05
			c0-1.09,0.89-1.98,1.98-1.98l25.99,0c0.53,0,1.03,0.21,1.4,0.58c0.37,0.37,0.58,0.88,0.58,1.4l0,15.05c0,1.09-0.89,1.98-1.98,1.98
			L17.84,167.15z"/>
		<path class="st0" d="M17.84,150.12l25.99,0l0,15.05l-25.99,0L17.84,150.12 M17.84,146.16c-2.19,0-3.96,1.77-3.96,3.96l0,15.05
			c0,2.19,1.77,3.96,3.96,3.96l25.99,0c0,0,0,0,0,0c1.05,0,2.06-0.42,2.8-1.16c0.74-0.74,1.16-1.75,1.16-2.8l0-15.05
			c0-1.05-0.42-2.06-1.16-2.8c-0.74-0.74-1.75-1.16-2.8-1.16L17.84,146.16C17.84,146.16,17.84,146.16,17.84,146.16L17.84,146.16z"/>
	</g>
</g>
<g>
	<g>
		<path class="st15" d="M262.06,262.43c-0.51,0-1.01-0.19-1.4-0.58l-18.37-18.38c-0.37-0.37-0.58-0.88-0.58-1.4s0.21-1.03,0.58-1.4
			l10.64-10.64c0.39-0.39,0.89-0.58,1.4-0.58s1.01,0.19,1.4,0.58l18.37,18.38c0.37,0.37,0.58,0.88,0.58,1.4s-0.21,1.03-0.58,1.4
			l-10.64,10.64C263.07,262.23,262.56,262.43,262.06,262.43z"/>
		<path class="st0" d="M254.32,231.43l18.37,18.38l-10.64,10.64l-18.37-18.38L254.32,231.43 M254.32,227.47
			c-1.01,0-2.03,0.39-2.8,1.16l-10.64,10.64c-0.74,0.74-1.16,1.75-1.16,2.8c0,1.05,0.42,2.06,1.16,2.8l18.37,18.38
			c0.77,0.77,1.79,1.16,2.8,1.16c1.01,0,2.03-0.39,2.8-1.16l10.64-10.64c0.74-0.74,1.16-1.75,1.16-2.8c0-1.05-0.42-2.06-1.16-2.8
			l-18.37-18.38C256.35,227.86,255.34,227.47,254.32,227.47L254.32,227.47z"/>
	</g>
</g>
<g>
	<g>
		<path class="st14" d="M282.61,167.15c-0.53,0-1.03-0.21-1.4-0.58c-0.37-0.37-0.58-0.88-0.58-1.4l0-15.05
			c0-1.09,0.89-1.98,1.98-1.98l25.99,0c0.53,0,1.03,0.21,1.4,0.58c0.37,0.37,0.58,0.88,0.58,1.4l0,15.05c0,1.09-0.89,1.98-1.98,1.98
			L282.61,167.15z"/>
		<path class="st0" d="M282.61,150.12l25.99,0l0,15.05l-25.99,0L282.61,150.12 M282.61,146.16c-2.19,0-3.96,1.77-3.96,3.96l0,15.05
			c0,2.19,1.77,3.96,3.96,3.96l25.99,0c0,0,0,0,0,0c1.05,0,2.06-0.42,2.8-1.16c0.74-0.74,1.16-1.75,1.16-2.8l0-15.05
			c0-1.05-0.42-2.06-1.16-2.8c-0.74-0.74-1.75-1.16-2.8-1.16L282.61,146.16C282.61,146.16,282.61,146.16,282.61,146.16
			L282.61,146.16z"/>
	</g>
</g>
<g>
	<g>
		<path class="st15" d="M251.6,75.21c-0.53,0-1.03-0.21-1.4-0.58l-10.64-10.64c-0.37-0.37-0.58-0.88-0.58-1.4s0.21-1.03,0.58-1.4
			l18.38-18.38c0.39-0.39,0.89-0.58,1.4-0.58s1.01,0.19,1.4,0.58l10.64,10.64c0.37,0.37,0.58,0.88,0.58,1.4s-0.21,1.03-0.58,1.4
			L253,74.63C252.63,75,252.12,75.21,251.6,75.21L251.6,75.21z"/>
		<path class="st0" d="M259.35,44.21l10.64,10.64L251.6,73.22l-10.64-10.64L259.35,44.21 M259.35,40.24c-1.05,0-2.06,0.42-2.8,1.16
			l-18.38,18.38c-0.74,0.74-1.16,1.75-1.16,2.8c0,1.05,0.42,2.06,1.16,2.8l10.64,10.64c0.77,0.77,1.79,1.16,2.8,1.16
			c1.01,0,2.03-0.39,2.8-1.16l18.38-18.38c1.55-1.55,1.55-4.06,0-5.6l-10.64-10.64C261.4,40.66,260.4,40.24,259.35,40.24
			C259.35,40.24,259.35,40.24,259.35,40.24L259.35,40.24z"/>
	</g>
</g>
<g>
	<g>
		<circle class="st0" cx="117.62" cy="317.05" r="9.51"/>
	</g>
	<g>
		<g>
			<path class="st13" d="M161.33,414.57c-0.79,0-1.55-0.32-2.1-0.88c-0.56-0.56-0.87-1.32-0.86-2.11l0.06-11.16l-40.74-13.14
				c-0.04-0.01-0.09-0.03-0.13-0.04c-4.25-1.59-6.82-5.87-6.26-10.4c0.61-4.56,4.21-8.03,8.76-8.46l36.11-4.32l-17.82-7.56
				c-3.87-1.64-6.25-5.52-5.92-9.66c0.27-4.1,3.13-7.62,7.12-8.73l10.79-3l-33.09-11.32c-0.82-0.28-1.48-0.91-1.8-1.72l-2.78-7.06
				c-0.35-0.89-0.25-1.9,0.27-2.7l12.43-19.2l0.11-44.36c0-1.64,1.33-2.96,2.97-2.96c0,0,13.58,0.03,13.58,0.03
				c0.79,0,1.54,0.32,2.1,0.88s0.87,1.32,0.87,2.1l-0.12,45.61c0,0.56-0.16,1.1-0.45,1.57l-9.17,14.64l51.18,16.2
				c4.03,1.38,6.68,5.1,6.67,9.28c0,0.1,0,0.2-0.01,0.31c-0.12,4.25-2.99,7.91-7.14,9.07l-14.27,3.96l27.1,11.5
				c3.62,1.54,5.96,5.07,5.95,9.01c0,0.47-0.04,0.96-0.11,1.44c-0.69,4.45-4.28,7.83-8.74,8.25l-32.18,3.03l7.52,1.63
				c0.14,0.03,0.28,0.07,0.41,0.12c3.8,1.42,6.35,5.1,6.34,9.17l-0.09,18.06c-0.01,1.64-1.34,2.96-2.97,2.96
				C174.91,414.61,161.33,414.57,161.33,414.57z"/>
			<path class="st0" d="M128.45,248.76l13.58,0.03l-0.13,45.61l-11.21,17.89l54.84,17.36c2.76,0.94,4.6,3.54,4.6,6.44
				c0,0.06,0,0.12,0,0.18c-0.09,2.97-2.1,5.54-4.97,6.34l-22.46,6.24l34.92,14.82c2.54,1.08,4.14,3.57,4.14,6.26
				c0,0.34-0.03,0.68-0.08,1.03c-0.48,3.07-2.98,5.43-6.07,5.72l-51.3,4.84l26.28,5.69c2.66,0.99,4.42,3.54,4.41,6.38l-0.09,18.05
				l-13.58-0.03l0.08-13.33l-42.81-13.81c-2.96-1.11-4.74-4.13-4.35-7.25c0.42-3.14,2.94-5.57,6.09-5.87l47.26-5.65l-28.09-11.92
				c-2.66-1.13-4.35-3.83-4.12-6.69c0.19-2.88,2.18-5.33,4.96-6.1l20.04-5.57l-42.17-14.43l-2.78-7.06l12.9-19.93L128.45,248.76
				 M128.45,242.81c-3.27,0-5.93,2.65-5.94,5.93l-0.11,43.49l-11.95,18.47c-1.04,1.61-1.24,3.62-0.54,5.41l2.78,7.06
				c0.64,1.62,1.96,2.88,3.61,3.45l24.01,8.22l-1.55,0.43c-5.19,1.44-8.92,6.02-9.29,11.4c-0.41,5.4,2.69,10.45,7.73,12.59l7.55,3.2
				l-25.04,3c-5.9,0.6-10.56,5.1-11.34,10.99c0,0.02,0,0.04-0.01,0.05c-0.73,5.91,2.62,11.48,8.17,13.55
				c0.08,0.03,0.17,0.06,0.26,0.09l38.67,12.47l-0.05,8.98c-0.01,1.58,0.61,3.1,1.72,4.22c1.11,1.12,2.63,1.75,4.2,1.76l13.58,0.03
				c0,0,0.01,0,0.01,0c3.27,0,5.93-2.64,5.94-5.91l0.09-18.05c0.01-3.53-1.46-6.84-3.9-9.21l19.13-1.8
				c5.81-0.55,10.49-4.95,11.39-10.72c0-0.02,0.01-0.03,0.01-0.05c0.09-0.63,0.14-1.26,0.14-1.88c0.01-5.13-3.03-9.74-7.76-11.75
				l-19.27-8.18l6.07-1.69c5.39-1.5,9.13-6.25,9.32-11.84c0.01-0.13,0.01-0.26,0.01-0.39c0.01-5.46-3.45-10.32-8.61-12.08
				c-0.04-0.02-0.09-0.03-0.13-0.04l-47.53-15.04l7.14-11.39c0.59-0.94,0.9-2.03,0.91-3.14l0.13-45.61c0-1.58-0.62-3.09-1.73-4.21
				c-1.11-1.12-2.62-1.75-4.2-1.75l-13.58-0.03C128.46,242.81,128.46,242.81,128.45,242.81L128.45,242.81z"/>
		</g>
	</g>
	<g>
		<circle class="st13" cx="120.76" cy="316.03" r="5.61"/>
	</g>
</g>
</svg>