<?xml version="1.0" encoding="utf-8"?>
<!-- Generator: Adobe Illustrator 27.4.1, SVG Export Plug-In . SVG Version: 6.00 Build 0)  -->
<svg version="1.1" id="Layer_1" xmlns="http://www.w3.org/2000/svg" xmlns:xlink="http://www.w3.org/1999/xlink" x="0px" y="0px"
	 viewBox="0 0 400 400" style="enable-background:new 0 0 400 400;" xml:space="preserve">
<g>
	<path d="M310.52,200.868c0.003-0.001-0.009-0.018-0.03-0.08c-0.027-0.06-0.058-0.126-0.086-0.196
		c-0.159-0.377-0.31-0.754-0.453-1.123c-1.303-3.233-2.63-6.445-3.974-9.656c-3.846-9.176-7.832-18.298-11.679-27.472
		c-0.675-1.611-1.344-3.229-2.006-4.843c-0.7-1.706-1.413-3.405-2.101-5.058c-0.007-0.015-0.023-0.047-0.039-0.088
		c-0.721-1.722-6.846-16.693-6.846-16.691c-4.724-11.256-17.659-16.555-28.915-11.845c-4.305,1.806-7.718,4.827-10.056,8.484
		c-0.094,0.151-0.25,0.25-0.428,0.278c-0.176,0.023-0.356-0.031-0.489-0.15c-6.157-5.503-15.146-7.325-23.271-3.926
		c-4.311,1.806-7.721,4.826-10.056,8.485c-0.098,0.148-0.255,0.25-0.432,0.275c-0.177,0.023-0.356-0.032-0.489-0.15
		c-6.155-5.505-15.145-7.327-23.269-3.928c-3.303,1.387-6.08,3.484-8.249,6.034c-0.139,0.16-0.35,0.24-0.561,0.206
		c-0.207-0.032-0.386-0.17-0.468-0.364c-1.503-3.582-3.035-7.228-4.568-10.89c-6.001-14.325-12.029-28.83-16.609-40.083
		l-0.212-0.506c0,0-0.006-0.014-0.008-0.013c-2.805-6.694-7.397-11.407-12.826-13.516c-5.434-2.141-11.198-1.625-16.094,0.416
		c-0.016,0.009-0.021,0.01-0.023,0.009h-0.001l-0.012,0.008l-0.063,0.026c-5.762,2.436-10.651,6.931-13.598,12.725
		c-2.931,5.729-3.745,13.042-0.814,20.039c0.007,0.017,0.018,0.042,0.051,0.115l51.198,122.208c0.093,0.221,0.048,0.482-0.122,0.657
		c-0.168,0.176-0.423,0.231-0.652,0.147c-7.733-2.883-14.699-4.239-20.897-4.349c-5.843-0.101-11.007,0.899-15.493,2.766
		l-0.064,0.021l0.001,0.003c-8.089,3.389-13.487,9.473-16.306,15.757c-2.785,6.334-3.422,12.845-1.182,18.452
		c0.76,1.814,1.899,3.55,3.543,4.934c1.626,1.38,3.77,2.32,6.008,2.555c21.789,2.44,33.582,9.241,42.709,16.737
		c9.148,7.472,15.362,16.366,25.626,22.243c3.399,1.748,6.249,1.554,9.239,1.396c4.809-0.426,10.129-1.769,14.014-2.906
		c0.298-0.089,0.613,0.062,0.734,0.35l26.475,63.194c0.569,1.362,1.681,2.463,3.052,3.026c1.367,0.558,2.932,0.556,4.264-0.001
		l88.008-43.881c1.324-0.617,2.403-1.784,2.946-3.215c0.547-1.377,0.538-2.954-0.03-4.312l-21.925-52.329
		c0.005-0.003-0.01-0.016-0.04-0.083c-0.783-2.028-0.131-7.116,0.849-12.289c0.987-5.21,2.311-10.447,2.839-12.512
		c2.468-9.63,4.669-18.445,1.158-28.219c-0.491-1.365-1.03-2.722-1.596-4.072C314.405,209.379,312.316,205.152,310.52,200.868z
		 M275.193,145.719l2.594,6.192c6.452,15.404,12.479,31.114,18.947,46.56c2.362,5.63,4.776,11.227,7.301,16.759
		c0.157,0.344,0.304,0.688,0.445,1.027c0.017,0.04,0.017,0.042,0.02,0.043c6.91,16.558-0.334,33.433-4.348,50.15
		c-0.281,1.153-0.188,2.349,0.263,3.444l0.011,0.026l0.01,0.014l22.012,52.548c0.122,0.294-0.007,0.638-0.29,0.78l-76.707,38.476
		c-0.013,0.007-0.024,0.013-0.035,0.018c-0.143,0.059-0.302,0.066-0.45,0.011c-0.158-0.06-0.285-0.181-0.351-0.337l-26.252-62.665
		c-1.151-2.749-4.249-4.119-7.028-3.137c-0.056,0.023-0.1,0.038-0.078,0.031c-0.231,0.079-1.238,0.429-2.782,0.912
		c-2.645,0.83-6.779,2.012-10.48,2.677c-1.845,0.336-3.587,0.529-4.828,0.538c-0.63,0.004-1.115-0.038-1.397-0.088
		c-0.024-0.005-0.053-0.009-0.092-0.021l-0.158-0.058c-7.276-4.033-13.543-12.407-23.757-20.987
		c-10.298-8.595-24.862-16.666-48.411-19.222c-0.189-0.024-0.358-0.131-0.455-0.292c-0.062-0.1-0.129-0.229-0.19-0.375
		c-0.03-0.065-0.048-0.1-0.064-0.14l-0.026-0.061c-0.638-1.608-0.655-5.526,1.13-9.31c1.767-3.885,4.971-7.619,10.037-9.865
		c0.057-0.185,0.201-0.338,0.398-0.401c0.162-0.052,0.327-0.033,0.465,0.037c4.846-1.905,11.696-2.582,20.941-0.211
		c5.279,1.355,11.342,3.706,18.257,7.393c0.123,0.064,0.222,0.172,0.276,0.304l4.803,11.462c1.242,2.959,4.648,4.354,7.61,3.117
		c2.96-1.244,4.356-4.65,3.115-7.608l-63.093-150.606c-1.534-3.725-1.154-7.143,0.442-10.39c1.578-3.175,4.54-5.901,7.639-7.205
		c0.002,0.004,0.006,0,0.018-0.004l-0.001-0.004l0.021-0.009c2.736-1.132,5.292-1.236,7.474-0.374
		c2.149,0.878,4.463,2.759,6.431,7.364l0.098,0.235c4.608,11.322,10.642,25.845,16.654,40.194
		c5.849,13.961,11.665,27.736,16.098,38.213c-0.02-0.038-0.048-0.074-0.079-0.107c0.044,0.049,0.079,0.106,0.104,0.167l0.001,0.002
		c0.01,0.024,0.019,0.049,0.025,0.074c0.007,0.023,0.007,0.024,0.005,0.026c0.001,0.001,0.003,0.004,0.003,0.005l0.002,0.004
		l0.001,0.013c0.001,0.008,0.003,0.019,0.009,0.033c0.007,0.03,0.022,0.079,0.046,0.136l8.475,20.228
		c1.257,2.988,4.688,4.396,7.684,3.146c2.988-1.258,4.393-4.69,3.147-7.683l-0.899-2.145c-0.006-0.015-0.035-0.088-0.081-0.196
		c-0.046-0.111-0.112-0.265-0.196-0.461c0,0-10.262-24.211-11.679-27.576c-1.502-5.178,1.101-10.827,6.248-12.994
		c5.53-2.306,11.878,0.292,14.211,5.827l12.057,29.309c1.256,2.988,4.69,4.394,7.684,3.146c2.99-1.259,4.394-4.692,3.146-7.684
		l-0.246-0.585c-0.011-0.029-0.023-0.059-0.029-0.09l-0.005-0.012c-0.011-0.034-0.031-0.092-0.061-0.166
		c-0.058-0.153-0.146-0.376-0.258-0.659c-0.228-0.567-0.552-1.371-0.948-2.335c-0.787-1.924-1.844-4.481-2.898-7.031
		c-2.113-5.104-4.228-10.182-4.23-10.191c-2.309-5.535,0.295-11.885,5.824-14.219c5.325-2.217,11.408,0.126,13.926,5.249
		l0.038,0.097c0.052,0.173,0.167,0.445,0.377,0.999c1.731,4.372,8.441,20.563,8.451,20.584c1.26,2.99,4.694,4.396,7.688,3.149
		c2.985-1.258,4.394-4.692,3.142-7.692l-5.198-12.852c-2.311-5.534,0.292-11.888,5.819-14.214c5.53-2.307,11.882,0.296,14.216,5.837
		C272.949,140.022,275.033,145.34,275.193,145.719z"/>
	<path d="M164.833,85.034l0.001-0.001l0.002-0.003L164.833,85.034z M156.175,34.48l-0.002-0.001
		c0.428-0.948,0.413-1.756,0.137-2.503c-0.03-0.058-0.03-0.083-0.039-0.092c-0.011-0.027-0.02-0.049-0.029-0.074
		c-0.528-1.181-1.845-2.237-3.423-2.804c-1.591-0.58-3.392-0.639-4.693-0.094c-0.936,0.408-1.633,1.09-1.966,2.26l-5.479,19.263
		l-3.719,13.079l0.002,0.003l0.001,0l0.001,0.004c0.001,0.002,0.002,0.004,0.002,0.004l0.001,0.003
		c0.005,0.012,0.006,0.016,0.008,0.02c0.135,0.349,0.971,0.976,2.116,1.381c0.02,0.005,0.039,0.01,0.058,0.017
		c1.177,0.426,2.407,0.505,2.817,0.302l0.015-0.004l0.21-0.06c0.005-0.006,0.01-0.015,0.017-0.026
		c0.038-0.065,0.091-0.209,0.117-0.411l0.075-0.261l9.159-19.951L156.175,34.48z M105.456,25.117
		c-1.335-0.275-2.975-0.052-4.462,0.557c-1.478,0.633-2.788,1.646-3.528,2.791c-0.732,1.16-0.955,2.359-0.387,3.752
		c0.047,0.108,0.098,0.216,0.164,0.341l14.911,29.137l2.653,5.187c0.018,0.069,0.181,0.225,0.899,0.218
		c0.661-0.017,1.552-0.238,2.394-0.588c0.844-0.356,1.629-0.837,2.092-1.287c0.522-0.518,0.524-0.759,0.493-0.787l-1.839-5.548
		l-10.298-31.037c-0.048-0.135-0.099-0.264-0.144-0.372l-0.002-0.007C107.809,26.094,106.796,25.409,105.456,25.117z
		 M193.855,92.352l-0.007,0.001l-26.159,3.097c-0.094,0.099-0.236,0.417-0.321,1.172c-0.078,0.799,0.045,1.75,0.273,2.275
		c0.069,0.159,0.134,0.272,0.181,0.329c0.007,0.014,0.012,0.023,0.017,0.031l26.329,0.92c0.42,0.014,0.775-0.059,1.057-0.177
		c0.831-0.348,1.41-1.182,1.676-2.313c0.264-1.115,0.157-2.455-0.273-3.488c-0.003-0.002-0.002-0.006-0.031-0.07
		C196.032,92.907,195.185,92.2,193.855,92.352z M156.317,70.794l-0.053,0.091c0.004,0,0.008,0,0.013,0l0.048-0.083
		c0.083,0.046,0.148,0.072,0.219,0.086c0.008,0.002,0.017,0.004,0.026,0.006c0.014,0.003,0.027,0.004,0.038,0.005
		c0.005-0.006,0.016-0.02,0.033-0.052c0.097-0.175,0.246-0.315,0.425-0.398l15.987-12.846c0.745-0.605,0.828-1.383,0.488-2.33
		c-0.011-0.02-0.022-0.044-0.033-0.068c-0.01-0.024-0.021-0.054-0.032-0.088c-0.353-0.792-1.03-1.564-1.767-2.016
		c-0.769-0.472-1.516-0.589-2.113-0.34c-0.216,0.091-0.436,0.238-0.649,0.478l-14.299,15.636c0.011,0.044,0.029,0.107,0.061,0.181
		c0.167,0.41,0.633,1.008,1.072,1.364C156.003,70.591,156.185,70.72,156.317,70.794z M196.177,64.843
		c-0.988-0.626-1.991-0.811-3.167-0.331c0,0,0,0-0.002,0.001l-0.017,0.007c-0.078,0.033-0.167,0.078-0.278,0.138l-30.021,15.354
		c-0.012-0.001-0.139,0.067-0.138,0.696c0.001,0.003,0.001,0.005,0.001,0.009c0.017,0.557,0.203,1.316,0.508,2.036
		c0.303,0.729,0.719,1.403,1.099,1.793c0.189,0.194,0.351,0.299,0.48,0.358l0.137,0.095c0.034-0.004,0.11-0.017,0.211-0.06
		c0.067-0.029,0.152-0.073,0.251-0.134l0.183-0.084l31.341-10.396c0.104-0.036,0.209-0.073,0.296-0.111
		c1.177-0.506,1.748-1.351,1.994-2.498c0.24-1.141,0.046-2.563-0.475-3.836C198.034,66.603,197.158,65.472,196.177,64.843z
		 M75.867,97.366L75.867,97.366l0.008-0.003L75.867,97.366z M105.344,77.741l-13.553-6.795l-16.258-8.15
		c-1.016-0.501-1.908-0.477-2.75-0.138l-0.01,0.004c-1.233,0.512-2.366,1.815-2.996,3.357c-0.632,1.517-0.754,3.217-0.265,4.471
		c0.007,0.014,0.013,0.029,0.019,0.043c0.363,0.833,0.974,1.471,2.062,1.831l7.615,2.454l24.132,7.785l0,0c0,0-0.001-0.002,0.004,0
		c0.014-0.002,0.038-0.007,0.055-0.014c0.393-0.126,1.115-1.023,1.567-2.148c0.482-1.146,0.595-2.297,0.418-2.635
		C105.374,77.781,105.354,77.754,105.344,77.741L105.344,77.741z M80.278,92.851l-2.589-0.093c-0.314-0.011-0.587,0.046-0.773,0.124
		c-0.618,0.262-1.056,0.874-1.261,1.753c-0.204,0.862-0.114,1.918,0.225,2.732c0.007,0.017,0.011,0.03,0.016,0.041l0.003,0.002
		c0.438,0.934,1.054,1.444,2.038,1.334c0.022-0.002,0.042-0.005,0.063-0.006l5.179-0.618l15.828-1.875
		c0.045-0.075,0.111-0.274,0.178-0.793c0.059-0.63-0.039-1.371-0.205-1.748c-0.039-0.091-0.077-0.158-0.102-0.202L80.278,92.851z
		 M101.479,105.77l-0.001-0.002l-13.56,4.503l-20.692,6.864c-0.091,0.029-0.19,0.066-0.295,0.11l-0.001,0.001
		c-1.276,0.548-1.9,1.471-2.171,2.713c-0.257,1.232-0.049,2.758,0.51,4.127c1.151,2.637,3.359,4.456,5.58,3.788l0.106-0.023
		c0.123-0.019,0.287-0.065,0.47-0.142c0.2-0.085,0.422-0.204,0.654-0.359c0.039-0.026,0.08-0.049,0.123-0.068l18.812-9.625
		l12.705-6.498c0.049-0.008,0.185-0.12,0.18-0.794c-0.015-0.601-0.219-1.432-0.548-2.213c-0.327-0.787-0.776-1.515-1.189-1.944
		C101.684,105.731,101.493,105.758,101.479,105.77z M105.967,121.453c-0.132-0.05-0.187-0.056-0.218-0.054l-9.597,7.692
		l-10.96,8.783c-0.004,0.003-0.009,0.006-0.012,0.008c-1.041,0.848-1.13,1.941-0.66,3.192c0,0,0.002,0.004,0.029,0.064
		c0.44,1.044,1.32,2.059,2.299,2.658c0.989,0.604,1.991,0.774,2.807,0.432c0.296-0.124,0.6-0.33,0.886-0.637l7.551-8.227
		l10.259-11.18c-0.003-0.054-0.031-0.195-0.106-0.382c-0.226-0.55-0.815-1.3-1.404-1.782
		C106.469,121.728,106.16,121.532,105.967,121.453z"/>
</g>
</svg>
